<?xml version="1.0" encoding="UTF-8" standalone="no"?>
<!DOCTYPE svg PUBLIC "-//W3C//DTD SVG 1.0//EN" "http://www.w3.org/TR/2001/PR-SVG-20010719/DTD/svg10.dtd">
<svg width="57cm" height="31cm" viewBox="45 26 1124 615" xmlns="http://www.w3.org/2000/svg" xmlns:xlink="http://www.w3.org/1999/xlink">
  <g>
    <rect style="fill: #ffffff" x="309" y="29" width="264.7" height="18"/>
    <rect style="fill: none; fill-opacity:0; stroke-width: 2; stroke: #000000" x="309" y="29" width="264.7" height="18"/>
    <text font-size="11.2" style="fill: #0000ff;text-anchor:middle;font-family:sans-serif;font-style:normal;font-weight:700" x="441.35" y="43">commerce</text>
    <rect style="fill: #ffffff" x="309" y="47" width="264.7" height="233"/>
    <rect style="fill: none; fill-opacity:0; stroke-width: 2; stroke: #000000" x="309" y="47" width="264.7" height="233"/>
    <polygon style="fill: #000000" points="312,57 314,60 316,57 314,54 "/>
    <text font-size="12.8" style="fill: #0000ff;text-anchor:start;font-family:monospace;font-style:normal;font-weight:700" x="318" y="63">id_commerce</text>
    <text font-size="12.8" style="fill: #0000ff;text-anchor:start;font-family:monospace;font-style:normal;font-weight:700" x="466.6" y="63">mediumint</text>
    <line style="fill: none; fill-opacity:0; stroke-width: 1; stroke: #0000ff" x1="318" y1="64.6" x2="535.9" y2="64.6"/>
    <ellipse style="fill: #000000" cx="314" cy="73" rx="2" ry="2"/>
    <text font-size="12.8" style="fill: #0000ff;text-anchor:start;font-family:monospace;font-style:normal;font-weight:normal" x="318" y="79">id_statut</text>
    <text font-size="12.8" style="fill: #0000ff;text-anchor:start;font-family:monospace;font-style:normal;font-weight:normal" x="466.6" y="79">tinyint</text>
    <text font-size="11.2" style="fill: #0000ff;text-anchor:start;font-family:sans-serif;font-style:italic;font-weight:normal" x="323" y="93">Clef étrangère</text>
    <ellipse style="fill: #000000" cx="314" cy="110" rx="2" ry="2"/>
    <text font-size="12.8" style="fill: #0000ff;text-anchor:start;font-family:monospace;font-style:normal;font-weight:normal" x="318" y="116">nom</text>
    <text font-size="12.8" style="fill: #0000ff;text-anchor:start;font-family:monospace;font-style:normal;font-weight:normal" x="466.6" y="116">varchar (100)</text>
    <ellipse style="fill: none; fill-opacity:0; stroke-width: 0.2; stroke: #000000" cx="314" cy="126" rx="2" ry="2"/>
    <text font-size="12.8" style="fill: #0000ff;text-anchor:start;font-family:monospace;font-style:normal;font-weight:normal" x="318" y="132">logo</text>
    <text font-size="12.8" style="fill: #0000ff;text-anchor:start;font-family:monospace;font-style:normal;font-weight:normal" x="466.6" y="132">varchar (200)</text>
    <ellipse style="fill: none; fill-opacity:0; stroke-width: 0.2; stroke: #000000" cx="314" cy="142" rx="2" ry="2"/>
    <text font-size="12.8" style="fill: #0000ff;text-anchor:start;font-family:monospace;font-style:normal;font-weight:normal" x="318" y="148">image</text>
    <text font-size="12.8" style="fill: #0000ff;text-anchor:start;font-family:monospace;font-style:normal;font-weight:normal" x="466.6" y="148">varchar (200)</text>
    <ellipse style="fill: #000000" cx="314" cy="158" rx="2" ry="2"/>
    <text font-size="12.8" style="fill: #0000ff;text-anchor:start;font-family:monospace;font-style:normal;font-weight:normal" x="318" y="164">horaires</text>
    <text font-size="12.8" style="fill: #0000ff;text-anchor:start;font-family:monospace;font-style:normal;font-weight:normal" x="466.6" y="164">varchar (25)</text>
    <ellipse style="fill: #000000" cx="314" cy="174" rx="2" ry="2"/>
    <text font-size="12.8" style="fill: #0000ff;text-anchor:start;font-family:monospace;font-style:normal;font-weight:normal" x="318" y="180">num_tel</text>
    <text font-size="12.8" style="fill: #0000ff;text-anchor:start;font-family:monospace;font-style:normal;font-weight:normal" x="466.6" y="180">varchar (20)</text>
    <ellipse style="fill: none; fill-opacity:0; stroke-width: 0.2; stroke: #000000" cx="314" cy="190" rx="2" ry="2"/>
    <text font-size="12.8" style="fill: #0000ff;text-anchor:start;font-family:monospace;font-style:normal;font-weight:normal" x="318" y="196">email</text>
    <text font-size="12.8" style="fill: #0000ff;text-anchor:start;font-family:monospace;font-style:normal;font-weight:normal" x="466.6" y="196">varchar (150)</text>
    <ellipse style="fill: none; fill-opacity:0; stroke-width: 0.2; stroke: #000000" cx="314" cy="206" rx="2" ry="2"/>
    <text font-size="12.8" style="fill: #0000ff;text-anchor:start;font-family:monospace;font-style:normal;font-weight:normal" x="318" y="212">ligne_bus</text>
    <text font-size="12.8" style="fill: #0000ff;text-anchor:start;font-family:monospace;font-style:normal;font-weight:normal" x="466.6" y="212">tinyint</text>
    <ellipse style="fill: none; fill-opacity:0; stroke-width: 0.2; stroke: #000000" cx="314" cy="222" rx="2" ry="2"/>
    <text font-size="12.8" style="fill: #0000ff;text-anchor:start;font-family:monospace;font-style:normal;font-weight:normal" x="318" y="228">arret</text>
    <text font-size="12.8" style="fill: #0000ff;text-anchor:start;font-family:monospace;font-style:normal;font-weight:normal" x="466.6" y="228">varchar (100)</text>
    <ellipse style="fill: none; fill-opacity:0; stroke-width: 0.2; stroke: #000000" cx="314" cy="238" rx="2" ry="2"/>
    <text font-size="12.8" style="fill: #0000ff;text-anchor:start;font-family:monospace;font-style:normal;font-weight:normal" x="318" y="244">nb_abonnes</text>
    <text font-size="12.8" style="fill: #0000ff;text-anchor:start;font-family:monospace;font-style:normal;font-weight:normal" x="466.6" y="244">mediumint</text>
    <ellipse style="fill: none; fill-opacity:0; stroke-width: 0.2; stroke: #000000" cx="314" cy="254" rx="2" ry="2"/>
    <text font-size="12.8" style="fill: #0000ff;text-anchor:start;font-family:monospace;font-style:normal;font-weight:normal" x="318" y="260">donnees_google_map</text>
    <text font-size="12.8" style="fill: #0000ff;text-anchor:start;font-family:monospace;font-style:normal;font-weight:normal" x="466.6" y="260">text</text>
    <ellipse style="fill: none; fill-opacity:0; stroke-width: 0.2; stroke: #000000" cx="314" cy="270" rx="2" ry="2"/>
    <text font-size="12.8" style="fill: #0000ff;text-anchor:start;font-family:monospace;font-style:normal;font-weight:normal" x="318" y="276">donnees_GPS</text>
    <text font-size="12.8" style="fill: #0000ff;text-anchor:start;font-family:monospace;font-style:normal;font-weight:normal" x="466.6" y="276">text</text>
  </g>
  <g>
    <rect style="fill: #ffffff" x="73" y="105" width="195.4" height="18"/>
    <rect style="fill: none; fill-opacity:0; stroke-width: 2; stroke: #000000" x="73" y="105" width="195.4" height="18"/>
    <text font-size="11.2" style="fill: #0000ff;text-anchor:middle;font-family:sans-serif;font-style:normal;font-weight:700" x="170.7" y="119">statut</text>
    <rect style="fill: #ffffff" x="73" y="123" width="195.4" height="52"/>
    <rect style="fill: none; fill-opacity:0; stroke-width: 2; stroke: #000000" x="73" y="123" width="195.4" height="52"/>
    <polygon style="fill: #000000" points="76,133 78,136 80,133 78,130 "/>
    <text font-size="12.8" style="fill: #0000ff;text-anchor:start;font-family:monospace;font-style:normal;font-weight:700" x="82" y="139">id_statut</text>
    <text font-size="12.8" style="fill: #0000ff;text-anchor:start;font-family:monospace;font-style:normal;font-weight:700" x="169" y="139">tinyint</text>
    <line style="fill: none; fill-opacity:0; stroke-width: 1; stroke: #0000ff" x1="82" y1="140.6" x2="222.9" y2="140.6"/>
    <ellipse style="fill: #000000" cx="78" cy="149" rx="2" ry="2"/>
    <text font-size="12.8" style="fill: #0000ff;text-anchor:start;font-family:monospace;font-style:normal;font-weight:normal" x="82" y="155">nom_statut</text>
    <text font-size="12.8" style="fill: #0000ff;text-anchor:start;font-family:monospace;font-style:normal;font-weight:normal" x="169" y="155">varchar (50)</text>
    <ellipse style="fill: #000000" cx="78" cy="165" rx="2" ry="2"/>
    <text font-size="12.8" style="fill: #0000ff;text-anchor:start;font-family:monospace;font-style:normal;font-weight:normal" x="82" y="171">descriptif</text>
    <text font-size="12.8" style="fill: #0000ff;text-anchor:start;font-family:monospace;font-style:normal;font-weight:normal" x="169" y="171">text</text>
  </g>
  <g>
    <rect style="fill: #ffffff" x="686" y="26" width="180" height="18"/>
    <rect style="fill: none; fill-opacity:0; stroke-width: 2; stroke: #000000" x="686" y="26" width="180" height="18"/>
    <text font-size="11.2" style="fill: #0000ff;text-anchor:middle;font-family:sans-serif;font-style:normal;font-weight:700" x="776" y="40">quigerequoi</text>
    <rect style="fill: #ffffff" x="686" y="44" width="180" height="78"/>
    <rect style="fill: none; fill-opacity:0; stroke-width: 2; stroke: #000000" x="686" y="44" width="180" height="78"/>
    <ellipse style="fill: #000000" cx="691" cy="54" rx="2" ry="2"/>
    <text font-size="12.8" style="fill: #0000ff;text-anchor:start;font-family:monospace;font-style:normal;font-weight:normal" x="695" y="60">id_commerce</text>
    <text font-size="12.8" style="fill: #0000ff;text-anchor:start;font-family:monospace;font-style:normal;font-weight:normal" x="789.7" y="60">mediumint</text>
    <text font-size="11.2" style="fill: #0000ff;text-anchor:start;font-family:sans-serif;font-style:italic;font-weight:normal" x="700" y="74">Clef étrangère</text>
    <ellipse style="fill: #000000" cx="691" cy="91" rx="2" ry="2"/>
    <text font-size="12.8" style="fill: #0000ff;text-anchor:start;font-family:monospace;font-style:normal;font-weight:normal" x="695" y="97">id_gerant</text>
    <text font-size="12.8" style="fill: #0000ff;text-anchor:start;font-family:monospace;font-style:normal;font-weight:normal" x="789.7" y="97">mediumint</text>
    <text font-size="11.2" style="fill: #0000ff;text-anchor:start;font-family:sans-serif;font-style:italic;font-weight:normal" x="700" y="111">Clef étrangère</text>
  </g>
  <g>
    <polyline style="fill: none; fill-opacity:0; stroke-width: 2; stroke: #000000" points="574,48 630,48 630,52 676.264,52 "/>
    <polygon style="fill: #000000" points="683.764,52 673.764,57 676.264,52 673.764,47 "/>
    <polygon style="fill: none; fill-opacity:0; stroke-width: 2; stroke: #000000" points="683.764,52 673.764,57 676.264,52 673.764,47 "/>
    <text font-size="16" style="fill: #ff0000;text-anchor:start;font-family:monospace;font-style:normal;font-weight:normal" x="580" y="42">1,n</text>
    <text font-size="16" style="fill: #ff0000;text-anchor:end;font-family:monospace;font-style:normal;font-weight:normal" x="680" y="46">1,n</text>
  </g>
  <g>
    <rect style="fill: #ffffff" x="958" y="39" width="210.8" height="18"/>
    <rect style="fill: none; fill-opacity:0; stroke-width: 2; stroke: #000000" x="958" y="39" width="210.8" height="18"/>
    <text font-size="11.2" style="fill: #0000ff;text-anchor:middle;font-family:sans-serif;font-style:normal;font-weight:700" x="1063.4" y="53">gerant</text>
    <rect style="fill: #ffffff" x="958" y="57" width="210.8" height="52"/>
    <rect style="fill: none; fill-opacity:0; stroke-width: 2; stroke: #000000" x="958" y="57" width="210.8" height="52"/>
    <polygon style="fill: #000000" points="961,67 963,70 965,67 963,64 "/>
    <text font-size="12.8" style="fill: #0000ff;text-anchor:start;font-family:monospace;font-style:normal;font-weight:700" x="967" y="73">id_gerant</text>
    <text font-size="12.8" style="fill: #0000ff;text-anchor:start;font-family:monospace;font-style:normal;font-weight:700" x="1069.4" y="73">mediumint</text>
    <line style="fill: none; fill-opacity:0; stroke-width: 1; stroke: #0000ff" x1="967" y1="74.6" x2="1138.7" y2="74.6"/>
    <ellipse style="fill: #000000" cx="963" cy="83" rx="2" ry="2"/>
    <text font-size="12.8" style="fill: #0000ff;text-anchor:start;font-family:monospace;font-style:normal;font-weight:normal" x="967" y="89">pseudo</text>
    <text font-size="12.8" style="fill: #0000ff;text-anchor:start;font-family:monospace;font-style:normal;font-weight:normal" x="1069.4" y="89">varchar (50)</text>
    <ellipse style="fill: #000000" cx="963" cy="99" rx="2" ry="2"/>
    <text font-size="12.8" style="fill: #0000ff;text-anchor:start;font-family:monospace;font-style:normal;font-weight:normal" x="967" y="105">mot_de_passe</text>
    <text font-size="12.8" style="fill: #0000ff;text-anchor:start;font-family:monospace;font-style:normal;font-weight:normal" x="1069.4" y="105">varchar (50)</text>
  </g>
  <g>
    <polyline style="fill: none; fill-opacity:0; stroke-width: 2; stroke: #000000" points="958,67 912,67 912,91 875.736,91 "/>
    <polygon style="fill: #000000" points="868.236,91 878.236,86 875.736,91 878.236,96 "/>
    <polygon style="fill: none; fill-opacity:0; stroke-width: 2; stroke: #000000" points="868.236,91 878.236,86 875.736,91 878.236,96 "/>
    <text font-size="15.9977" style="fill: #ff0000;text-anchor:end;font-family:monospace;font-style:normal;font-weight:normal" x="952" y="61">1,n</text>
    <text font-size="15.9977" style="fill: #ff0000;text-anchor:start;font-family:monospace;font-style:normal;font-weight:normal" x="872" y="85">1,n</text>
  </g>
  <g>
    <rect style="fill: #ffffff" x="95" y="364" width="218.5" height="18"/>
    <rect style="fill: none; fill-opacity:0; stroke-width: 2; stroke: #000000" x="95" y="364" width="218.5" height="18"/>
    <text font-size="11.2" style="fill: #0000ff;text-anchor:middle;font-family:sans-serif;font-style:normal;font-weight:700" x="204.25" y="378">kuchikomi</text>
    <rect style="fill: #ffffff" x="95" y="382" width="218.5" height="169"/>
    <rect style="fill: none; fill-opacity:0; stroke-width: 2; stroke: #000000" x="95" y="382" width="218.5" height="169"/>
    <polygon style="fill: #000000" points="98,392 100,395 102,392 100,389 "/>
    <text font-size="12.8" style="fill: #0000ff;text-anchor:start;font-family:monospace;font-style:normal;font-weight:700" x="104" y="398">id_kuchikomi</text>
    <text font-size="12.8" style="fill: #0000ff;text-anchor:start;font-family:monospace;font-style:normal;font-weight:700" x="206.4" y="398">int</text>
    <line style="fill: none; fill-opacity:0; stroke-width: 1; stroke: #0000ff" x1="104" y1="399.6" x2="229.5" y2="399.6"/>
    <ellipse style="fill: #000000" cx="100" cy="408" rx="2" ry="2"/>
    <text font-size="12.8" style="fill: #0000ff;text-anchor:start;font-family:monospace;font-style:normal;font-weight:normal" x="104" y="414">id_commerce</text>
    <text font-size="12.8" style="fill: #0000ff;text-anchor:start;font-family:monospace;font-style:normal;font-weight:normal" x="206.4" y="414">mediumint</text>
    <text font-size="11.2" style="fill: #0000ff;text-anchor:start;font-family:sans-serif;font-style:italic;font-weight:normal" x="109" y="428">Clef étrangère</text>
    <ellipse style="fill: #000000" cx="100" cy="445" rx="2" ry="2"/>
    <text font-size="12.8" style="fill: #0000ff;text-anchor:start;font-family:monospace;font-style:normal;font-weight:normal" x="104" y="451">texte_alerte</text>
    <text font-size="12.8" style="fill: #0000ff;text-anchor:start;font-family:monospace;font-style:normal;font-weight:normal" x="206.4" y="451">varchar (200)</text>
    <ellipse style="fill: none; fill-opacity:0; stroke-width: 0.2; stroke: #000000" cx="100" cy="461" rx="2" ry="2"/>
    <text font-size="12.8" style="fill: #0000ff;text-anchor:start;font-family:monospace;font-style:normal;font-weight:normal" x="104" y="467">texte</text>
    <text font-size="12.8" style="fill: #0000ff;text-anchor:start;font-family:monospace;font-style:normal;font-weight:normal" x="206.4" y="467">text</text>
    <ellipse style="fill: none; fill-opacity:0; stroke-width: 0.2; stroke: #000000" cx="100" cy="477" rx="2" ry="2"/>
    <text font-size="12.8" style="fill: #0000ff;text-anchor:start;font-family:monospace;font-style:normal;font-weight:normal" x="104" y="483">photo</text>
    <text font-size="12.8" style="fill: #0000ff;text-anchor:start;font-family:monospace;font-style:normal;font-weight:normal" x="206.4" y="483">varchar (200)</text>
    <ellipse style="fill: none; fill-opacity:0; stroke-width: 0.2; stroke: #000000" cx="100" cy="493" rx="2" ry="2"/>
    <text font-size="12.8" style="fill: #0000ff;text-anchor:start;font-family:monospace;font-style:normal;font-weight:normal" x="104" y="499">date_debut</text>
    <text font-size="12.8" style="fill: #0000ff;text-anchor:start;font-family:monospace;font-style:normal;font-weight:normal" x="206.4" y="499">date</text>
    <ellipse style="fill: none; fill-opacity:0; stroke-width: 0.2; stroke: #000000" cx="100" cy="509" rx="2" ry="2"/>
    <text font-size="12.8" style="fill: #0000ff;text-anchor:start;font-family:monospace;font-style:normal;font-weight:normal" x="104" y="515">date_fin</text>
    <text font-size="12.8" style="fill: #0000ff;text-anchor:start;font-family:monospace;font-style:normal;font-weight:normal" x="206.4" y="515">date</text>
    <ellipse style="fill: none; fill-opacity:0; stroke-width: 0.2; stroke: #000000" cx="100" cy="525" rx="2" ry="2"/>
    <text font-size="12.8" style="fill: #0000ff;text-anchor:start;font-family:monospace;font-style:normal;font-weight:normal" x="104" y="531">nb_jaime</text>
    <text font-size="12.8" style="fill: #0000ff;text-anchor:start;font-family:monospace;font-style:normal;font-weight:normal" x="206.4" y="531">mediumint</text>
    <ellipse style="fill: none; fill-opacity:0; stroke-width: 0.2; stroke: #000000" cx="100" cy="541" rx="2" ry="2"/>
    <text font-size="12.8" style="fill: #0000ff;text-anchor:start;font-family:monospace;font-style:normal;font-weight:normal" x="104" y="547">nb_passe</text>
    <text font-size="12.8" style="fill: #0000ff;text-anchor:start;font-family:monospace;font-style:normal;font-weight:normal" x="206.4" y="547">mediumint</text>
  </g>
  <g>
    <polyline style="fill: none; fill-opacity:0; stroke-width: 2; stroke: #000000" points="268.4,153 288.7,153 288.7,93 299.264,93 "/>
    <polygon style="fill: #000000" points="306.764,93 296.764,98 299.264,93 296.764,88 "/>
    <polygon style="fill: none; fill-opacity:0; stroke-width: 2; stroke: #000000" points="306.764,93 296.764,98 299.264,93 296.764,88 "/>
    <text font-size="15.9977" style="fill: #ff0000;text-anchor:start;font-family:monospace;font-style:normal;font-weight:normal" x="274.4" y="147">1</text>
    <text font-size="15.9977" style="fill: #ff0000;text-anchor:end;font-family:monospace;font-style:normal;font-weight:normal" x="303" y="87">0,n</text>
  </g>
  <g>
    <polyline style="fill: none; fill-opacity:0; stroke-width: 2; stroke: #000000" points="309,57 45,57 45,408 85.2639,408 "/>
    <polygon style="fill: #000000" points="92.7639,408 82.7639,413 85.2639,408 82.7639,403 "/>
    <polygon style="fill: none; fill-opacity:0; stroke-width: 2; stroke: #000000" points="92.7639,408 82.7639,413 85.2639,408 82.7639,403 "/>
    <text font-size="15.9977" style="fill: #ff0000;text-anchor:end;font-family:monospace;font-style:normal;font-weight:normal" x="303" y="51">1</text>
    <text font-size="15.9977" style="fill: #ff0000;text-anchor:end;font-family:monospace;font-style:normal;font-weight:normal" x="89" y="402">0,n</text>
  </g>
  <g>
    <rect style="fill: #ffffff" x="743" y="413" width="218.5" height="18"/>
    <rect style="fill: none; fill-opacity:0; stroke-width: 2; stroke: #000000" x="743" y="413" width="218.5" height="18"/>
    <text font-size="11.2" style="fill: #0000ff;text-anchor:middle;font-family:sans-serif;font-style:normal;font-weight:700" x="852.25" y="427">abonne</text>
    <rect style="fill: #ffffff" x="743" y="431" width="218.5" height="52"/>
    <rect style="fill: none; fill-opacity:0; stroke-width: 2; stroke: #000000" x="743" y="431" width="218.5" height="52"/>
    <polygon style="fill: #000000" points="746,441 748,444 750,441 748,438 "/>
    <text font-size="12.8" style="fill: #0000ff;text-anchor:start;font-family:monospace;font-style:normal;font-weight:700" x="752" y="447">id_abonne</text>
    <text font-size="12.8" style="fill: #0000ff;text-anchor:start;font-family:monospace;font-style:normal;font-weight:700" x="854.4" y="447">int</text>
    <line style="fill: none; fill-opacity:0; stroke-width: 1; stroke: #0000ff" x1="752" y1="448.6" x2="877.5" y2="448.6"/>
    <ellipse style="fill: #000000" cx="748" cy="457" rx="2" ry="2"/>
    <text font-size="12.8" style="fill: #0000ff;text-anchor:start;font-family:monospace;font-style:normal;font-weight:normal" x="752" y="463">pseudo</text>
    <text font-size="12.8" style="fill: #0000ff;text-anchor:start;font-family:monospace;font-style:normal;font-weight:normal" x="854.4" y="463">varchar (100)</text>
    <ellipse style="fill: #000000" cx="748" cy="473" rx="2" ry="2"/>
    <text font-size="12.8" style="fill: #0000ff;text-anchor:start;font-family:monospace;font-style:normal;font-weight:normal" x="752" y="479">mot_de_passe</text>
    <text font-size="12.8" style="fill: #0000ff;text-anchor:start;font-family:monospace;font-style:normal;font-weight:normal" x="854.4" y="479">varchar (200)</text>
  </g>
  <g>
    <rect style="fill: #ffffff" x="694" y="219" width="180" height="18"/>
    <rect style="fill: none; fill-opacity:0; stroke-width: 2; stroke: #000000" x="694" y="219" width="180" height="18"/>
    <text font-size="11.2" style="fill: #0000ff;text-anchor:middle;font-family:sans-serif;font-style:normal;font-weight:700" x="784" y="233">abonnement</text>
    <rect style="fill: #ffffff" x="694" y="237" width="180" height="94"/>
    <rect style="fill: none; fill-opacity:0; stroke-width: 2; stroke: #000000" x="694" y="237" width="180" height="94"/>
    <ellipse style="fill: #000000" cx="699" cy="247" rx="2" ry="2"/>
    <text font-size="12.8" style="fill: #0000ff;text-anchor:start;font-family:monospace;font-style:normal;font-weight:normal" x="703" y="253">id_abonne</text>
    <text font-size="12.8" style="fill: #0000ff;text-anchor:start;font-family:monospace;font-style:normal;font-weight:normal" x="797.7" y="253">int</text>
    <text font-size="11.2" style="fill: #0000ff;text-anchor:start;font-family:sans-serif;font-style:italic;font-weight:normal" x="708" y="267">Clef étrangère</text>
    <ellipse style="fill: #000000" cx="699" cy="284" rx="2" ry="2"/>
    <text font-size="12.8" style="fill: #0000ff;text-anchor:start;font-family:monospace;font-style:normal;font-weight:normal" x="703" y="290">id_commerce</text>
    <text font-size="12.8" style="fill: #0000ff;text-anchor:start;font-family:monospace;font-style:normal;font-weight:normal" x="797.7" y="290">mediumint</text>
    <text font-size="11.2" style="fill: #0000ff;text-anchor:start;font-family:sans-serif;font-style:italic;font-weight:normal" x="708" y="304">Clef étrangère</text>
    <ellipse style="fill: #000000" cx="699" cy="321" rx="2" ry="2"/>
    <text font-size="12.8" style="fill: #0000ff;text-anchor:start;font-family:monospace;font-style:normal;font-weight:normal" x="703" y="327">date</text>
    <text font-size="12.8" style="fill: #0000ff;text-anchor:start;font-family:monospace;font-style:normal;font-weight:normal" x="797.7" y="327">datetime</text>
  </g>
  <g>
    <polyline style="fill: none; fill-opacity:0; stroke-width: 2; stroke: #000000" points="573.7,68 633.85,68 633.85,295 684.264,295 "/>
    <polygon style="fill: #000000" points="691.764,295 681.764,300 684.264,295 681.764,290 "/>
    <polygon style="fill: none; fill-opacity:0; stroke-width: 2; stroke: #000000" points="691.764,295 681.764,300 684.264,295 681.764,290 "/>
    <text font-size="15.9977" style="fill: #ff0000;text-anchor:start;font-family:monospace;font-style:normal;font-weight:normal" x="579.7" y="62">1</text>
    <text font-size="15.9977" style="fill: #ff0000;text-anchor:end;font-family:monospace;font-style:normal;font-weight:normal" x="688" y="289">0,n</text>
  </g>
  <g>
    <polyline style="fill: none; fill-opacity:0; stroke-width: 2; stroke: #000000" points="961.5,441 981.5,441 981.5,247 883.736,247 "/>
    <polygon style="fill: #000000" points="876.236,247 886.236,242 883.736,247 886.236,252 "/>
    <polygon style="fill: none; fill-opacity:0; stroke-width: 2; stroke: #000000" points="876.236,247 886.236,242 883.736,247 886.236,252 "/>
    <text font-size="15.9977" style="fill: #ff0000;text-anchor:start;font-family:monospace;font-style:normal;font-weight:normal" x="967.5" y="435">1</text>
    <text font-size="15.9977" style="fill: #ff0000;text-anchor:start;font-family:monospace;font-style:normal;font-weight:normal" x="880" y="241">0,n</text>
  </g>
  <g>
    <rect style="fill: #ffffff" x="447" y="355" width="180" height="18"/>
    <rect style="fill: none; fill-opacity:0; stroke-width: 2; stroke: #000000" x="447" y="355" width="180" height="18"/>
    <text font-size="11.2" style="fill: #0000ff;text-anchor:middle;font-family:sans-serif;font-style:normal;font-weight:700" x="537" y="369">jaime</text>
    <rect style="fill: #ffffff" x="447" y="373" width="180" height="94"/>
    <rect style="fill: none; fill-opacity:0; stroke-width: 2; stroke: #000000" x="447" y="373" width="180" height="94"/>
    <ellipse style="fill: #000000" cx="452" cy="383" rx="2" ry="2"/>
    <text font-size="12.8" style="fill: #0000ff;text-anchor:start;font-family:monospace;font-style:normal;font-weight:normal" x="456" y="389">id_abonne</text>
    <text font-size="12.8" style="fill: #0000ff;text-anchor:start;font-family:monospace;font-style:normal;font-weight:normal" x="558.4" y="389">int</text>
    <text font-size="11.2" style="fill: #0000ff;text-anchor:start;font-family:sans-serif;font-style:italic;font-weight:normal" x="461" y="403">Clef étrangère</text>
    <ellipse style="fill: #000000" cx="452" cy="420" rx="2" ry="2"/>
    <text font-size="12.8" style="fill: #0000ff;text-anchor:start;font-family:monospace;font-style:normal;font-weight:normal" x="456" y="426">id_kuchikomi</text>
    <text font-size="12.8" style="fill: #0000ff;text-anchor:start;font-family:monospace;font-style:normal;font-weight:normal" x="558.4" y="426">int</text>
    <text font-size="11.2" style="fill: #0000ff;text-anchor:start;font-family:sans-serif;font-style:italic;font-weight:normal" x="461" y="440">Clef étrangère</text>
    <ellipse style="fill: #000000" cx="452" cy="457" rx="2" ry="2"/>
    <text font-size="12.8" style="fill: #0000ff;text-anchor:start;font-family:monospace;font-style:normal;font-weight:normal" x="456" y="463">date</text>
    <text font-size="12.8" style="fill: #0000ff;text-anchor:start;font-family:monospace;font-style:normal;font-weight:normal" x="558.4" y="463">datetime</text>
  </g>
  <g>
    <polyline style="fill: none; fill-opacity:0; stroke-width: 2; stroke: #000000" points="743,441 688,441 688,383 636.736,383 "/>
    <polygon style="fill: #000000" points="629.236,383 639.236,378 636.736,383 639.236,388 "/>
    <polygon style="fill: none; fill-opacity:0; stroke-width: 2; stroke: #000000" points="629.236,383 639.236,378 636.736,383 639.236,388 "/>
    <text font-size="15.9977" style="fill: #ff0000;text-anchor:end;font-family:monospace;font-style:normal;font-weight:normal" x="737" y="435">1</text>
    <text font-size="15.9977" style="fill: #ff0000;text-anchor:start;font-family:monospace;font-style:normal;font-weight:normal" x="633" y="377">0,n</text>
  </g>
  <g>
    <polyline style="fill: none; fill-opacity:0; stroke-width: 2; stroke: #000000" points="313.5,392 380.25,392 380.25,420 437.264,420 "/>
    <polygon style="fill: #000000" points="444.764,420 434.764,425 437.264,420 434.764,415 "/>
    <polygon style="fill: none; fill-opacity:0; stroke-width: 2; stroke: #000000" points="444.764,420 434.764,425 437.264,420 434.764,415 "/>
    <text font-size="15.9977" style="fill: #ff0000;text-anchor:start;font-family:monospace;font-style:normal;font-weight:normal" x="319.5" y="386">1</text>
    <text font-size="15.9977" style="fill: #ff0000;text-anchor:end;font-family:monospace;font-style:normal;font-weight:normal" x="441" y="414">0,n</text>
  </g>
  <g>
    <rect style="fill: #ffffff" x="481" y="528.25" width="180" height="18"/>
    <rect style="fill: none; fill-opacity:0; stroke-width: 2; stroke: #000000" x="481" y="528.25" width="180" height="18"/>
    <text font-size="11.2" style="fill: #0000ff;text-anchor:middle;font-family:sans-serif;font-style:normal;font-weight:700" x="571" y="542.25">passe</text>
    <rect style="fill: #ffffff" x="481" y="546.25" width="180" height="94"/>
    <rect style="fill: none; fill-opacity:0; stroke-width: 2; stroke: #000000" x="481" y="546.25" width="180" height="94"/>
    <ellipse style="fill: #000000" cx="486" cy="556.25" rx="2" ry="2"/>
    <text font-size="12.8" style="fill: #0000ff;text-anchor:start;font-family:monospace;font-style:normal;font-weight:normal" x="490" y="562.25">id_abonne</text>
    <text font-size="12.8" style="fill: #0000ff;text-anchor:start;font-family:monospace;font-style:normal;font-weight:normal" x="592.4" y="562.25">int</text>
    <text font-size="11.2" style="fill: #0000ff;text-anchor:start;font-family:sans-serif;font-style:italic;font-weight:normal" x="495" y="576.25">Clef étrangère</text>
    <ellipse style="fill: #000000" cx="486" cy="593.25" rx="2" ry="2"/>
    <text font-size="12.8" style="fill: #0000ff;text-anchor:start;font-family:monospace;font-style:normal;font-weight:normal" x="490" y="599.25">id_kuchikomi</text>
    <text font-size="12.8" style="fill: #0000ff;text-anchor:start;font-family:monospace;font-style:normal;font-weight:normal" x="592.4" y="599.25">int</text>
    <text font-size="11.2" style="fill: #0000ff;text-anchor:start;font-family:sans-serif;font-style:italic;font-weight:normal" x="495" y="613.25">Clef étrangère</text>
    <ellipse style="fill: #000000" cx="486" cy="630.25" rx="2" ry="2"/>
    <text font-size="12.8" style="fill: #0000ff;text-anchor:start;font-family:monospace;font-style:normal;font-weight:normal" x="490" y="636.25">date</text>
    <text font-size="12.8" style="fill: #0000ff;text-anchor:start;font-family:monospace;font-style:normal;font-weight:normal" x="592.4" y="636.25">datetime</text>
  </g>
  <g>
    <polyline style="fill: none; fill-opacity:0; stroke-width: 2; stroke: #000000" points="313.5,408 366,408 366,600.25 471.264,600.25 "/>
    <polygon style="fill: #000000" points="478.764,600.25 468.764,605.25 471.264,600.25 468.764,595.25 "/>
    <polygon style="fill: none; fill-opacity:0; stroke-width: 2; stroke: #000000" points="478.764,600.25 468.764,605.25 471.264,600.25 468.764,595.25 "/>
    <text font-size="15.9977" style="fill: #ff0000;text-anchor:start;font-family:monospace;font-style:normal;font-weight:normal" x="319.5" y="402">1</text>
    <text font-size="15.9977" style="fill: #ff0000;text-anchor:end;font-family:monospace;font-style:normal;font-weight:normal" x="475" y="594.25">0,n</text>
  </g>
  <g>
    <polyline style="fill: none; fill-opacity:0; stroke-width: 2; stroke: #000000" points="743,457 702,457 702,556.25 670.736,556.25 "/>
    <polygon style="fill: #000000" points="663.236,556.25 673.236,551.25 670.736,556.25 673.236,561.25 "/>
    <polygon style="fill: none; fill-opacity:0; stroke-width: 2; stroke: #000000" points="663.236,556.25 673.236,551.25 670.736,556.25 673.236,561.25 "/>
    <text font-size="15.9977" style="fill: #ff0000;text-anchor:end;font-family:monospace;font-style:normal;font-weight:normal" x="737" y="451">1</text>
    <text font-size="15.9977" style="fill: #ff0000;text-anchor:start;font-family:monospace;font-style:normal;font-weight:normal" x="667" y="550.25">0,n</text>
  </g>
</svg>
